<?xml version="1.0" encoding="UTF-8" standalone="no"?>
<!-- Uploaded to: SVG Repo, www.svgrepo.com, Generator: SVG Repo Mixer Tools -->

<svg
   xmlns:dc="http://purl.org/dc/elements/1.1/"
   xmlns:cc="http://creativecommons.org/ns#"
   xmlns:rdf="http://www.w3.org/1999/02/22-rdf-syntax-ns#"
   xmlns:svg="http://www.w3.org/2000/svg"
   xmlns="http://www.w3.org/2000/svg"
   xmlns:sodipodi="http://sodipodi.sourceforge.net/DTD/sodipodi-0.dtd"
   xmlns:inkscape="http://www.inkscape.org/namespaces/inkscape"
   width="800px"
   height="800px"
   viewBox="0 0 128 128"
   aria-hidden="true"
   role="img"
   class="iconify iconify--noto"
   preserveAspectRatio="xMidYMid meet"
   id="svg2"
   version="1.1"
   inkscape:version="0.91 r13725"
   sodipodi:docname="open3.svg">
  <metadata
     id="metadata14">
    <rdf:RDF>
      <cc:Work
         rdf:about="">
        <dc:format>image/svg+xml</dc:format>
        <dc:type
           rdf:resource="http://purl.org/dc/dcmitype/StillImage" />
        <dc:title></dc:title>
      </cc:Work>
    </rdf:RDF>
  </metadata>
  <defs
     id="defs12" />
  <sodipodi:namedview
     pagecolor="#ffffff"
     bordercolor="#666666"
     borderopacity="1"
     objecttolerance="10"
     gridtolerance="10"
     guidetolerance="10"
     inkscape:pageopacity="0"
     inkscape:pageshadow="2"
     inkscape:window-width="1920"
     inkscape:window-height="1147"
     id="namedview10"
     showgrid="false"
     inkscape:zoom="0.834386"
     inkscape:cx="102.69988"
     inkscape:cy="437.58395"
     inkscape:window-x="-8"
     inkscape:window-y="-8"
     inkscape:window-maximized="1"
     inkscape:current-layer="svg2" />
  <path
     d="M37.02 27.71v-1.74c0-3.47-2.08-4.19-4.36-3.78l-19.1 3.45c-2.29.41-3.97 2.47-3.97 4.87v4.44c0 1.62-1.13 3.01-2.68 3.29l-.34.06c-1.34.24-2.33 1.44-2.33 2.85l-.02 74.35c0 1.47.61 1.33 1.07 1.21l93.87-22.16c1.34-.24 2.33-1.44 2.33-2.85V25.13c0-1.79-1.56-3.15-3.27-2.85l-56.31 9.69c-2.55.45-4.89-.51-4.89-4.26z"
     fill="#f3ab47"
     id="path4"
     style="fill:#dd860e;fill-opacity:1" />
  <path
     d="M103.4 91.44l19.96-43.24c.36-.78.43-1.69.05-2.46c-.46-.94-1.41-1.51-2.94-1.23L64.2 54.13c-2.62.45-3.49.94-4.75 5.29s-1.86 9.38-5.64 9.79l-20.96 3.53c-3.93.72-5.58 4.88-5.58 4.88L5.1 116.76l94.5-22.23c1.35-.23 2.88-1.49 3.8-3.09z"
     fill="#ffe36c"
     id="path6"
     style="fill:#f0c200;fill-opacity:1" />
  <path
     d="M120.47 45.56l-54.85 9.13c-3.6.69-4.44 1.52-5.51 5.42c-1.2 4.37-2.52 9.75-6.3 10.16L32.85 73.8"
     fill="none"
     stroke="#fff9c4"
     stroke-width="2"
     stroke-linecap="round"
     stroke-miterlimit="10"
     id="path8" />
</svg>
